# xmcd
#
# Track frame offsets: 
#        150
#        18337
#        35644
#        54026
#        62933
#        75876
#        85204
#        98830
#        106816
#        120180
#        133950
#        144410
#        154258
#        165610
#        177444
#
# Disc length: 2535 seconds
#
# Revision: 0
# Processed by: cddbd v1.5.2PL0 Copyright (c) Steve Scherf et al.
# Submitted via: ExactAudioCopyFreeDBPlugin 1.0
#
DISCID=b709e50f
DTITLE=Psycho-Devilles - Country Gold
DYEAR=2013
DGENRE=Country
TTITLE0=One Minute At a Time
TTITLE1=My Guitar Saved Me
TTITLE2=Never Alone
TTITLE3=Rodeo
TTITLE4=Give and Take
TTITLE5=Made of Me
TTITLE6=Being Home Again
TTITLE7=6 Beers in Six Minutes
TTITLE8=Finksburg
TTITLE9=Better Man
TTITLE10=Doin' Fine
TTITLE11=She Left She Split
TTITLE12=Rebel
TTITLE13=Blame
TTITLE14=Blue Flame
EXTD=
EXTT0=
EXTT1=
EXTT2=
EXTT3=
EXTT4=
EXTT5=
EXTT6=
EXTT7=
EXTT8=
EXTT9=
EXTT10=
EXTT11=
EXTT12=
EXTT13=
EXTT14=
PLAYORDER=
